<?xml version="1.0" encoding="UTF-8"?>
<svg id="_1" data-name="1" xmlns="http://www.w3.org/2000/svg" width="100mm" height="100mm" viewBox="0 0 283.46 283.46">
  <path d="m155.41,101.35c0-15.34,12.44-27.78,27.78-27.78s27.78,12.44,27.78,27.78-12.44,27.78-27.78,27.78-27.78-12.44-27.78-27.78" fill="#d67026" fill-rule="evenodd"/>
  <path d="m227.05,128.81c-4.42-7.65-12.26-12.07-20.47-12.47-4.88,7.59-13.34,12.65-23.01,12.78-4.14,7.43-4.39,16.79.18,24.69l20.13,34.86h-124.18l63.22-109.5c4.34,3.25,9.63,4.99,15.01,4.99,1.23,0,2.45-.1,3.68-.28,4.05-5,9.8-8.56,16.37-9.81,5.76-7.76,6.72-18.51,1.58-27.41l-10.1-17.49c-8.92-1.99-18.2-3.04-27.72-3.04s-18.77,1.05-27.69,3.03L20.48,191.22c5.59,17.83,15,33.97,27.28,47.46h187.93c12.3-13.51,21.73-29.69,27.32-47.57l-35.97-62.3Z" fill="#f2f2f2"/>
</svg>